<?xml version="1.0" standalone="no"?>
<!DOCTYPE svg PUBLIC "-//W3C//DTD SVG 20010904//EN"
 "http://www.w3.org/TR/2001/REC-SVG-20010904/DTD/svg10.dtd">
<svg version="1.0" xmlns="http://www.w3.org/2000/svg"
 width="1920.000000pt" height="1080.000000pt" viewBox="0 0 1920.000000 1080.000000"
 preserveAspectRatio="xMidYMid meet">

<g transform="translate(0.000000,1080.000000) scale(0.100000,-0.100000)"
fill="#000000" stroke="none">
<path d="M8430 10794 c-1565 -49 -2722 -226 -3900 -598 -129 -41 -275 -87
-324 -102 -101 -31 -189 -86 -225 -139 -32 -47 -51 -124 -51 -202 l0 -62 -411
-3 -411 -3 -24 -28 c-13 -15 -24 -39 -24 -51 0 -27 35 -76 55 -76 7 0 16 -15
19 -33 11 -58 25 -230 26 -304 0 -64 -3 -75 -25 -97 -28 -28 -33 -72 -10 -102
8 -10 15 -38 15 -60 0 -31 8 -51 31 -80 17 -22 38 -43 47 -48 10 -5 53 -39 97
-76 100 -83 385 -304 486 -377 l76 -55 7 -872 c3 -479 11 -970 16 -1091 14
-309 13 -767 -2 -1055 -10 -184 -13 -846 -13 -2655 0 -1325 3 -2422 8 -2438
11 -39 72 -104 110 -116 18 -6 107 -23 197 -38 l165 -28 5050 -2 5050 -3 62
30 62 31 428 -1 c235 0 434 -1 441 0 6 0 21 9 32 20 18 18 20 33 20 183 0 290
-33 653 -81 891 -101 507 -313 930 -620 1238 l-96 96 -7 654 c-3 359 -9 793
-12 963 -6 303 5 576 36 855 14 126 12 257 -6 373 -14 88 -16 186 -13 722 5
970 5 967 -15 1110 -15 106 -18 166 -13 330 4 110 11 358 16 550 6 193 16 442
22 554 14 230 6 346 -31 446 -21 56 -23 74 -21 295 3 250 -6 345 -40 434 -25
69 -86 147 -146 189 -62 44 -493 263 -633 321 -478 201 -996 304 -1805 361
-619 43 -807 56 -990 70 -676 50 -1308 75 -1965 79 -305 2 -602 2 -660 0z
m987 -124 c419 -9 1062 -38 1368 -60 153 -12 1038 -74 1280 -91 736 -50 1289
-161 1735 -348 181 -76 607 -299 646 -338 18 -18 39 -43 45 -55 l12 -22 -34
22 c-63 41 -433 229 -564 287 -346 153 -718 253 -1190 319 -187 26 -618 64
-1030 91 -132 9 -321 22 -420 30 -195 16 -674 46 -1120 71 -383 21 -1525 30
-1935 15 -1146 -42 -2077 -167 -3015 -402 -275 -69 -338 -87 -670 -190 -332
-103 -433 -137 -441 -150 -3 -5 -10 -9 -15 -9 -20 0 23 61 61 86 39 26 459
163 775 253 1079 308 2280 467 3720 494 72 2 180 4 240 5 61 1 309 -3 552 -8z
m-67 -293 c0 -57 -3 -137 -6 -178 l-6 -74 -307 3 c-295 4 -1011 -13 -1118 -25
l-53 -6 0 176 0 176 53 5 c100 11 575 23 1005 24 l432 2 0 -103z m240 -82 l0
-175 -60 0 -60 0 0 108 c0 59 3 137 7 175 l6 67 53 0 54 0 0 -175z m355 165
c438 -21 632 -32 900 -50 154 -11 283 -20 288 -20 4 0 7 -79 7 -175 0 -160 -1
-175 -17 -175 -10 0 -67 4 -128 10 -142 12 -789 48 -1058 59 -114 4 -209 10
-211 12 -2 2 -7 82 -11 177 -7 164 -6 172 11 172 11 0 109 -5 219 -10z m-2205
-189 c0 -186 2 -181 -66 -181 l-34 0 0 123 c0 67 3 146 6 175 l7 52 43 0 44 0
0 -169z m-225 -13 c-3 -95 -8 -174 -9 -175 -1 -1 -103 -12 -225 -23 -309 -28
-614 -64 -890 -106 -128 -19 -236 -33 -238 -30 -3 2 -1 81 2 174 l8 170 136
21 c369 58 1007 132 1190 140 l34 1 -8 -172z m3831 112 c11 0 14 -32 14 -170
l0 -170 -50 0 -50 0 0 129 c0 70 3 150 6 176 7 46 8 47 37 41 16 -3 36 -6 43
-6z m498 -30 c339 -24 742 -61 753 -69 4 -3 7 -82 5 -175 l-3 -169 -67 6
c-285 26 -566 49 -782 63 -140 9 -256 17 -256 18 -1 0 -5 79 -9 174 l-7 172
43 0 c23 0 169 -9 323 -20z m960 -183 c4 -51 9 -130 13 -176 l6 -84 -48 7
c-27 3 -50 8 -52 10 -3 2 -1 80 3 173 l7 169 32 -4 33 -4 6 -91z m-6771 -29
c-6 -186 -12 -238 -30 -238 -12 0 -14 8 -9 38 3 20 6 99 6 175 0 126 1 137 18
137 17 0 18 -9 15 -112z m7028 71 c148 -29 357 -84 482 -126 l108 -37 -7 -165
c-4 -91 -7 -167 -8 -168 -1 -1 -42 12 -91 28 -105 34 -371 101 -500 125 -49 9
-93 20 -96 23 -4 3 -10 81 -13 174 -6 143 -5 167 7 167 8 0 61 -9 118 -21z
m-7193 -161 l-3 -171 -225 -48 c-124 -26 -283 -61 -353 -78 -71 -17 -130 -31
-133 -31 -2 0 -4 76 -4 170 l0 169 38 10 c172 46 620 148 660 150 l22 1 -2
-172z m-843 -190 c-3 -95 -8 -174 -9 -175 -1 -2 -17 -6 -34 -9 l-32 -6 0 169
0 170 33 11 c17 5 36 10 41 11 5 1 6 -72 1 -171z m8843 95 c6 -3 12 -14 12
-25 0 -21 -31 -292 -33 -294 -1 -1 -19 5 -39 13 l-38 15 0 157 c0 87 3 160 6
164 4 3 23 -1 43 -9 20 -9 42 -18 49 -21z m-9046 -153 c0 -90 -4 -166 -9 -170
-4 -4 -57 -22 -118 -40 -60 -18 -179 -54 -263 -82 -85 -27 -157 -46 -160 -43
-9 9 -8 260 1 305 7 33 11 36 70 53 34 9 154 46 267 81 113 35 206 63 208 61
2 -2 4 -76 4 -165z m4998 80 c501 -18 1062 -53 2250 -140 779 -57 1265 -155
1715 -347 194 -82 585 -287 622 -325 75 -78 89 -173 68 -483 -8 -127 -15 -313
-15 -415 -1 -102 -7 -324 -14 -495 -14 -337 -13 -349 12 -540 14 -106 16 -184
12 -425 -3 -162 -5 -515 -5 -785 0 -430 2 -507 19 -627 18 -123 18 -152 8
-270 -49 -543 -47 -403 -25 -1881 l6 -447 -204 0 -204 0 -114 157 c-481 659
-918 1164 -1769 2042 l-420 433 35 36 c33 32 35 38 30 81 -8 67 -66 212 -98
244 l-27 27 -1189 0 -1188 0 -1804 1245 c-992 684 -1812 1247 -1823 1251 -21
6 -78 -13 -78 -27 0 -5 -204 -9 -464 -9 l-464 0 -279 225 -279 224 -13 218
c-18 312 -20 307 209 376 63 19 203 62 310 96 1113 353 2341 534 3905 575 194
5 978 -4 1275 -14z m4375 -85 l175 -90 1 -75 c0 -41 4 -115 8 -165 5 -49 7
-91 6 -93 -1 -1 -95 44 -209 100 l-206 103 4 50 c15 161 30 265 37 263 5 -2
87 -43 184 -93z m-10050 -209 l0 -165 -34 -16 c-18 -9 -35 -15 -36 -13 -2 2
-5 67 -7 145 l-3 142 34 35 c19 20 37 36 40 36 4 0 6 -74 6 -164z m10387 -120
c6 -28 7 -75 2 -115 -6 -57 -8 -62 -14 -34 -4 17 -10 80 -13 140 -7 112 2 115
25 9z m-10598 -13 c11 -132 8 -157 -24 -218 -16 -31 -30 -68 -30 -81 l0 -24
-152 0 c-84 0 -210 3 -279 7 l-126 6 -7 156 c-4 86 -9 173 -12 194 l-6 37 314
0 315 0 7 -77z m-273 -658 l219 -175 0 -55 0 -56 -107 83 c-241 184 -443 350
-443 363 0 11 14 15 56 15 l57 0 218 -175z m212 113 c3 -35 5 -64 3 -65 -2 -2
-131 99 -150 118 -6 5 19 9 66 9 l75 0 6 -62z m525 -701 c116 -94 212 -177
212 -185 0 -17 16 -27 -252 152 l-228 150 0 49 0 48 28 -21 c15 -12 123 -99
240 -193z m170 -368 c45 -28 82 -54 82 -58 0 -4 16 -15 35 -24 32 -15 86 -17
513 -17 l478 0 59 -43 c33 -24 168 -118 300 -209 768 -528 1050 -723 1700
-1173 1211 -837 1241 -858 1320 -898 84 -42 162 -60 270 -62 55 -1 199 -7 320
-13 121 -6 470 -14 775 -18 l555 -6 30 -37 c128 -155 737 -856 1170 -1346 600
-679 1140 -1305 1164 -1348 20 -36 72 -66 114 -67 34 0 130 -52 235 -127 398
-286 660 -753 747 -1330 23 -155 57 -673 46 -710 -12 -43 -42 -91 -59 -98 -8
-3 -2240 -5 -4960 -5 -5256 0 -5051 -2 -5277 43 l-60 12 3 2350 c2 1507 7
2440 14 2600 14 326 14 786 0 1155 -7 162 -12 615 -12 1006 l0 712 178 -120
c97 -65 214 -142 260 -169z m1032 121 l0 -50 -404 0 c-447 0 -416 -5 -416 66
l0 34 410 0 410 0 0 -50z m1928 -1198 c1352 -934 1743 -1209 1748 -1228 5 -18
1 -31 -13 -43 -19 -18 -58 8 -1759 1183 l-1739 1202 -3 53 c-2 41 0 51 10 45
7 -4 797 -550 1756 -1212z m4109 -1243 l12 -32 -1012 7 c-557 3 -1054 9 -1104
12 -82 6 -93 9 -93 25 0 18 30 19 1093 19 l1093 0 11 -31z m-62 -229 l39 -40
-184 0 -185 0 -28 35 -27 35 167 3 c93 1 170 4 173 5 3 1 24 -16 45 -38z m230
-240 l59 -60 -195 0 -195 0 -35 38 c-19 20 -43 47 -53 60 l-19 22 189 0 190 0
59 -60z m235 -245 l44 -45 -206 0 -206 0 -36 40 c-20 22 -36 42 -36 45 0 3 89
5 198 5 l198 0 44 -45z m235 -240 l43 -50 -214 -2 -215 -2 -37 41 c-67 73 -78
69 164 66 l216 -3 43 -50z m225 -232 l30 -38 -216 -9 -216 -8 -39 38 c-21 21
-39 42 -39 46 0 4 101 8 224 8 l225 0 31 -37z m231 -250 l54 -58 -229 -7 -229
-7 -41 46 c-81 91 -98 83 162 83 l229 0 54 -57z m226 -253 l42 -45 -92 -6
c-51 -4 -155 -7 -232 -7 l-140 -1 -39 47 -39 47 44 6 c24 4 127 6 229 5 l185
-1 42 -45z m203 -237 l42 -48 -28 -6 c-16 -4 -60 -7 -97 -8 -67 -1 -243 -17
-282 -26 -16 -3 -34 11 -74 58 l-54 62 124 5 c68 3 170 7 226 8 l101 2 42 -47z
m216 -260 l47 -58 -219 -7 -218 -7 -47 52 c-26 29 -45 54 -43 56 8 9 150 18
291 20 l142 1 47 -57z m195 -246 c14 -17 29 -38 33 -44 6 -10 -38 -13 -207
-13 l-215 0 -36 45 -37 45 218 0 218 0 26 -33z m210 -279 c34 -46 67 -89 72
-95 7 -10 -32 -13 -189 -13 l-199 0 -73 88 -72 87 57 6 c32 3 122 6 200 7
l142 2 62 -82z m608 -287 c24 -18 23 -18 -95 -25 -185 -10 -398 -27 -412 -32
-7 -2 -34 12 -59 31 l-45 35 288 3 c159 1 291 3 294 4 3 2 16 -6 29 -16z m301
-236 l64 -65 -320 0 -321 0 -52 60 -52 59 78 4 c43 1 182 4 308 5 l231 2 64
-65z m224 -270 c20 -30 35 -56 34 -56 -2 -1 -145 -6 -319 -13 l-315 -11 -42
68 -42 67 324 0 323 0 37 -55z m136 -236 c12 -23 20 -42 18 -44 -2 -1 -149 -5
-326 -8 l-324 -5 -10 29 c-5 16 -10 32 -11 36 -1 4 133 13 298 19 165 6 308
11 317 12 11 1 25 -13 38 -39z m108 -251 c12 -35 22 -65 22 -68 0 -3 -100 -5
-222 -5 -123 0 -271 -3 -330 -7 l-108 -8 -16 58 c-9 31 -19 63 -21 69 -5 13
50 15 483 21 l170 2 22 -62z m-17 -218 l85 0 16 -67 c9 -38 16 -68 15 -69 -4
-3 -662 -21 -666 -18 -6 5 -31 137 -27 141 8 9 302 21 396 17 52 -2 134 -4
181 -4z m149 -302 c0 -13 3 -33 6 -46 l6 -22 -343 2 -344 3 -3 33 -3 32 68 1
c37 1 151 5 253 8 363 14 360 14 360 -11z m23 -218 c3 -3 8 -37 12 -76 l7 -72
-344 -4 c-188 -2 -345 -2 -348 0 -3 2 -7 39 -9 83 l-3 80 340 -3 c187 -2 342
-5 345 -8z m27 -320 l0 -30 -345 0 -345 0 0 25 0 24 128 4 c70 1 225 4 345 5
l217 2 0 -30z m-42 -176 c49 -6 52 -8 52 -35 l0 -29 -334 0 c-295 0 -335 2
-340 16 -13 33 -6 43 32 47 64 6 534 7 590 1z"/>
</g>
</svg>
