<svg xmlns="http://www.w3.org/2000/svg" xmlns:xlink="http://www.w3.org/1999/xlink" width="500" zoomAndPan="magnify" viewBox="0 0 375 374.999991" height="500" preserveAspectRatio="xMidYMid meet" version="1.0"><defs><g/><clipPath id="8360d90578"><path d="M 146 184 L 147.480469 184 L 147.480469 188 L 146 188 Z M 146 184 " clip-rule="nonzero"/></clipPath><clipPath id="d6ea51e5fe"><path d="M 144 191 L 147.480469 191 L 147.480469 194 L 144 194 Z M 144 191 " clip-rule="nonzero"/></clipPath><clipPath id="80ccf822b0"><path d="M 145 188 L 147.480469 188 L 147.480469 191 L 145 191 Z M 145 188 " clip-rule="nonzero"/></clipPath><clipPath id="9c3be2a1ad"><path d="M 24.480469 137.347656 L 143 137.347656 L 143 234 L 24.480469 234 Z M 24.480469 137.347656 " clip-rule="nonzero"/></clipPath></defs><path fill="#38b6ff" d="M 48.558594 232.734375 L 48.484375 232.773438 L 48.484375 232.855469 C 48.484375 232.988281 48.492188 233.121094 48.5 233.253906 L 48.511719 233.378906 L 50.1875 233.378906 L 50.183594 233.246094 C 50.175781 232.890625 50.1875 232.515625 50.222656 232.09375 L 50.238281 231.855469 L 50.027344 231.96875 C 49.539062 232.234375 49.046875 232.488281 48.558594 232.734375 " fill-opacity="1" fill-rule="nonzero"/><path fill="#38b6ff" d="M 64.664062 231.03125 L 58.921875 231.015625 L 58.839844 231.039062 C 58.304688 231.3125 57.753906 231.589844 57.203125 231.851562 L 56.675781 232.101562 L 62.574219 232.125 L 62.601562 232.109375 C 63.136719 231.839844 63.667969 231.558594 64.199219 231.277344 L 64.664062 231.03125 " fill-opacity="1" fill-rule="nonzero"/><path fill="#38b6ff" d="M 54.777344 232.976562 C 54.71875 233.011719 54.652344 233.035156 54.585938 233.066406 L 53.90625 233.378906 L 60.019531 233.378906 L 60.878906 232.984375 L 54.835938 232.964844 L 54.777344 232.976562 " fill-opacity="1" fill-rule="nonzero"/><path fill="#38b6ff" d="M 54.589844 231.953125 C 55.148438 231.699219 55.707031 231.429688 56.261719 231.167969 L 56.34375 231.128906 L 56.128906 228.429688 L 55.941406 228.546875 C 55.410156 228.878906 54.800781 229.257812 54.195312 229.617188 L 54.109375 229.664062 L 54.136719 229.761719 C 54.3125 230.445312 54.40625 231.140625 54.40625 231.835938 L 54.40625 232.039062 L 54.589844 231.953125 " fill-opacity="1" fill-rule="nonzero"/><path fill="#38b6ff" d="M 59.09375 229.769531 L 59.171875 229.726562 L 59.164062 229.640625 C 59.078125 228.78125 58.929688 227.878906 58.722656 226.964844 L 58.683594 226.78125 L 58.523438 226.882812 C 58.035156 227.207031 57.535156 227.542969 57.023438 227.867188 L 56.957031 227.910156 L 57.179688 230.730469 L 57.355469 230.644531 C 57.9375 230.355469 58.519531 230.066406 59.09375 229.769531 " fill-opacity="1" fill-rule="nonzero"/><path fill="#38b6ff" d="M 53.378906 230.304688 L 53.34375 230.128906 L 53.1875 230.21875 C 52.566406 230.578125 51.898438 230.960938 51.214844 231.335938 L 51.160156 231.363281 L 51.152344 231.433594 C 51.082031 232.003906 51.042969 232.59375 51.042969 233.246094 L 51.042969 233.378906 L 51.253906 233.378906 L 51.277344 233.371094 C 51.992188 233.078125 52.71875 232.769531 53.4375 232.457031 L 53.519531 232.417969 L 53.515625 232.273438 C 53.570312 231.625 53.523438 230.960938 53.378906 230.304688 " fill-opacity="1" fill-rule="nonzero"/><path fill="#38b6ff" d="M 142.695312 189.511719 L 142.503906 189.851562 C 142.03125 190.707031 141.589844 191.453125 141.144531 192.132812 C 141.082031 192.226562 141.019531 192.316406 140.953125 192.410156 C 140.890625 192.511719 140.820312 192.613281 140.753906 192.710938 L 140.734375 192.746094 L 140.734375 198.625 L 140.972656 198.261719 C 141.609375 197.3125 142.152344 196.460938 142.636719 195.652344 C 142.839844 195.3125 143.042969 194.925781 143.28125 194.4375 L 143.316406 194.367188 L 143.269531 194.300781 C 143.210938 194.21875 143.183594 194.148438 143.183594 194.078125 C 143.109375 192.757812 142.964844 191.347656 142.753906 189.898438 L 142.695312 189.511719 " fill-opacity="1" fill-rule="nonzero"/><path fill="#38b6ff" d="M 143.917969 192.300781 L 143.96875 192.871094 L 144.171875 192.332031 C 144.570312 191.261719 144.960938 190.039062 145.40625 188.480469 L 145.414062 188.449219 L 144.730469 184.867188 L 144.566406 185.308594 C 144.164062 186.390625 143.769531 187.324219 143.363281 188.167969 L 143.34375 188.207031 L 143.351562 188.25 C 143.601562 189.582031 143.789062 190.949219 143.917969 192.300781 " fill-opacity="1" fill-rule="nonzero"/><path fill="#38b6ff" d="M 145.152344 179.445312 L 145.179688 179.289062 L 143.84375 179.289062 L 143.839844 179.417969 C 143.804688 181.144531 143.742188 182.6875 143.644531 184.140625 L 143.574219 185.125 L 143.898438 184.1875 C 144.429688 182.652344 144.855469 181.058594 145.152344 179.445312 " fill-opacity="1" fill-rule="nonzero"/><g clip-path="url(#8360d90578)"><path fill="#38b6ff" d="M 147.296875 187.609375 L 147.453125 187.628906 L 147.445312 187.472656 C 147.425781 186.992188 147.394531 186.480469 147.34375 185.863281 L 147.261719 184.910156 L 147.078125 185.851562 C 146.984375 186.363281 146.871094 186.882812 146.742188 187.40625 L 146.710938 187.5625 L 146.867188 187.570312 C 147.015625 187.578125 147.148438 187.582031 147.296875 187.609375 " fill-opacity="1" fill-rule="nonzero"/></g><path fill="#38b6ff" d="M 145.265625 183.242188 L 145.289062 183.289062 C 145.308594 183.324219 145.328125 183.363281 145.335938 183.394531 L 145.921875 186.496094 L 146.046875 185.808594 C 146.425781 183.808594 146.511719 181.910156 146.308594 180.160156 L 146.207031 179.332031 L 146.046875 180.152344 C 145.824219 181.265625 145.519531 182.363281 145.277344 183.1875 L 145.265625 183.242188 " fill-opacity="1" fill-rule="nonzero"/><path fill="#38b6ff" d="M 143.863281 176.773438 L 143.863281 177.371094 C 143.867188 177.679688 143.867188 177.984375 143.863281 178.289062 L 143.863281 178.417969 L 145.1875 178.417969 L 145.269531 178.324219 L 145.273438 178.277344 C 145.289062 178.058594 145.285156 177.792969 145.277344 177.519531 L 145.273438 177.355469 C 145.265625 177.195312 145.257812 177.050781 145.257812 176.90625 L 145.257812 176.773438 L 143.863281 176.773438 " fill-opacity="1" fill-rule="nonzero"/><path fill="#38b6ff" d="M 143.863281 175.773438 L 143.863281 175.90625 L 145.167969 175.90625 L 145.109375 175.730469 C 145.042969 175.539062 144.976562 175.339844 144.914062 175.144531 C 144.855469 174.957031 144.792969 174.773438 144.726562 174.585938 C 144.519531 174.074219 144.28125 173.558594 144.050781 173.0625 L 143.78125 172.472656 L 143.800781 173.125 C 143.835938 174.125 143.855469 174.992188 143.863281 175.773438 " fill-opacity="1" fill-rule="nonzero"/><path fill="#38b6ff" d="M 60.566406 230.15625 L 66.203125 230.167969 L 66.230469 230.152344 C 67.015625 229.703125 67.785156 229.246094 68.523438 228.792969 L 68.914062 228.550781 L 63.476562 228.535156 L 63.441406 228.550781 C 62.558594 229.054688 61.765625 229.5 61.015625 229.910156 L 60.566406 230.15625 " fill-opacity="1" fill-rule="nonzero"/><path fill="#38b6ff" d="M 61.492188 224.84375 C 60.867188 225.285156 60.238281 225.71875 59.605469 226.15625 L 59.457031 226.257812 L 59.480469 226.34375 C 59.695312 227.246094 59.863281 228.171875 59.972656 229.101562 L 60 229.296875 L 60.476562 229.035156 C 60.894531 228.8125 61.320312 228.585938 61.730469 228.355469 L 61.800781 228.316406 L 61.695312 224.699219 L 61.492188 224.84375 " fill-opacity="1" fill-rule="nonzero"/><path fill="#38b6ff" d="M 138.257812 210.230469 L 138.292969 210.179688 C 138.820312 209.511719 139.324219 208.84375 139.84375 208.132812 L 139.996094 207.921875 L 135.136719 207.921875 L 135.101562 207.964844 C 134.464844 208.75 133.871094 209.460938 133.28125 210.140625 L 133.078125 210.382812 L 133.394531 210.355469 C 134.921875 210.25 136.535156 210.203125 138.191406 210.230469 L 138.257812 210.230469 " fill-opacity="1" fill-rule="nonzero"/><path fill="#38b6ff" d="M 106.65625 230.890625 C 107.355469 230.488281 108.039062 230.078125 108.671875 229.691406 L 108.769531 229.632812 L 108.726562 229.527344 C 108.707031 229.484375 108.695312 229.4375 108.691406 229.410156 L 108.441406 225.496094 L 108.242188 225.652344 C 107.503906 226.246094 106.824219 226.773438 106.171875 227.265625 L 106.101562 227.320312 L 106.121094 227.402344 C 106.375 228.476562 106.488281 229.613281 106.457031 230.773438 L 106.453125 231.011719 L 106.65625 230.890625 " fill-opacity="1" fill-rule="nonzero"/><path fill="#38b6ff" d="M 136.675781 204.3125 L 136.667969 204.214844 C 136.503906 202.292969 136.425781 200.332031 136.441406 198.390625 L 136.445312 198.042969 L 136.214844 198.300781 C 135.320312 199.273438 134.390625 200.242188 133.492188 201.175781 L 133.386719 201.289062 L 133.59375 208.191406 L 133.816406 207.925781 C 134.769531 206.78125 135.722656 205.574219 136.652344 204.347656 L 136.675781 204.3125 " fill-opacity="1" fill-rule="nonzero"/><path fill="#38b6ff" d="M 99.089844 232.410156 L 99.082031 232.183594 L 98.890625 232.304688 C 98.351562 232.644531 97.796875 232.996094 97.222656 233.328125 L 96.816406 233.570312 L 97.289062 233.574219 C 97.679688 233.578125 98.066406 233.589844 98.449219 233.605469 L 99.195312 233.625 L 99.171875 233.472656 C 99.125 233.078125 99.101562 232.699219 99.089844 232.410156 " fill-opacity="1" fill-rule="nonzero"/><path fill="#38b6ff" d="M 126.558594 215.816406 L 126.765625 215.613281 C 127.566406 214.828125 128.332031 214.042969 128.972656 213.382812 L 129.007812 213.34375 L 129.027344 205.886719 L 128.796875 206.125 C 128.375 206.566406 127.953125 207.011719 127.527344 207.453125 C 126.90625 208.105469 126.28125 208.765625 125.652344 209.417969 L 125.597656 209.472656 L 125.621094 209.542969 C 126.125 211.484375 126.433594 213.496094 126.539062 215.527344 L 126.558594 215.816406 " fill-opacity="1" fill-rule="nonzero"/><path fill="#38b6ff" d="M 132.761719 209.183594 L 132.546875 202.183594 L 132.332031 202.402344 C 132.191406 202.542969 132.058594 202.683594 131.921875 202.828125 L 131.703125 203.054688 C 131.421875 203.347656 131.144531 203.644531 130.863281 203.941406 C 130.550781 204.269531 130.242188 204.605469 129.929688 204.933594 L 129.894531 204.96875 L 129.878906 212.402344 L 130.105469 212.160156 C 131.0625 211.125 131.921875 210.167969 132.726562 209.226562 L 132.761719 209.183594 " fill-opacity="1" fill-rule="nonzero"/><path fill="#38b6ff" d="M 131.53125 217.835938 L 131.609375 217.859375 L 131.667969 217.800781 C 132.429688 217.011719 133.195312 216.195312 133.933594 215.375 L 134.128906 215.152344 L 128.648438 215.152344 L 128.609375 215.191406 C 127.878906 215.9375 127.078125 216.71875 126.167969 217.582031 L 125.929688 217.808594 L 131.429688 217.808594 C 131.460938 217.808594 131.515625 217.828125 131.53125 217.835938 " fill-opacity="1" fill-rule="nonzero"/><path fill="#38b6ff" d="M 99.976562 231.625 L 99.898438 231.6875 L 99.921875 231.78125 C 99.933594 231.820312 99.945312 231.863281 99.945312 231.894531 C 99.945312 232.425781 99.980469 232.960938 100.050781 233.53125 L 100.066406 233.636719 L 101.441406 233.691406 L 101.472656 233.671875 C 101.535156 233.640625 101.601562 233.609375 101.660156 233.574219 C 101.71875 233.546875 101.777344 233.511719 101.835938 233.484375 L 101.910156 233.449219 L 101.90625 233.359375 C 101.867188 232.398438 101.878906 231.460938 101.941406 230.574219 L 101.960938 230.304688 L 101.738281 230.460938 C 101.082031 230.902344 100.503906 231.285156 99.976562 231.625 " fill-opacity="1" fill-rule="nonzero"/><path fill="#38b6ff" d="M 64.738281 226.605469 L 64.808594 226.5625 L 64.609375 222.582031 L 64.414062 222.726562 C 63.808594 223.175781 63.210938 223.613281 62.597656 224.058594 L 62.546875 224.097656 L 62.660156 227.820312 L 62.851562 227.714844 C 63.421875 227.386719 64.042969 227.023438 64.738281 226.605469 " fill-opacity="1" fill-rule="nonzero"/><path fill="#38b6ff" d="M 139.757812 201.8125 C 139.269531 202.507812 138.738281 203.253906 138.128906 204.085938 L 137.976562 204.296875 L 142.480469 204.277344 L 142.523438 204.21875 C 142.941406 203.558594 143.363281 202.839844 143.855469 201.953125 L 143.960938 201.761719 L 139.800781 201.761719 L 139.757812 201.8125 " fill-opacity="1" fill-rule="nonzero"/><path fill="#38b6ff" d="M 105.628906 231.464844 L 105.601562 231.363281 C 105.585938 231.316406 105.574219 231.261719 105.582031 231.21875 L 105.582031 231.207031 C 105.648438 230.203125 105.582031 229.15625 105.382812 228.097656 L 105.34375 227.886719 L 105.175781 228.015625 C 104.527344 228.496094 103.820312 229.007812 102.949219 229.621094 L 102.902344 229.65625 L 102.894531 229.714844 C 102.792969 230.707031 102.75 231.738281 102.777344 232.789062 L 102.78125 233 L 102.964844 232.902344 C 103.902344 232.417969 104.832031 231.902344 105.535156 231.511719 L 105.628906 231.464844 " fill-opacity="1" fill-rule="nonzero"/><path fill="#38b6ff" d="M 142.398438 197.945312 C 141.835938 198.804688 141.242188 199.671875 140.671875 200.507812 L 140.40625 200.886719 L 144.414062 200.886719 L 144.453125 200.816406 C 144.921875 199.890625 145.335938 198.964844 145.683594 198.066406 L 145.757812 197.882812 L 142.4375 197.882812 L 142.398438 197.945312 " fill-opacity="1" fill-rule="nonzero"/><g clip-path="url(#d6ea51e5fe)"><path fill="#38b6ff" d="M 145.492188 191.648438 C 145.269531 192.308594 145.058594 192.886719 144.847656 193.414062 L 144.777344 193.59375 L 146.824219 193.636719 L 146.875 193.65625 L 146.898438 193.65625 L 147 193.648438 L 147.03125 193.554688 C 147.042969 193.496094 147.058594 193.441406 147.066406 193.390625 C 147.171875 192.824219 147.253906 192.292969 147.320312 191.761719 L 147.335938 191.617188 L 145.523438 191.554688 L 145.492188 191.648438 " fill-opacity="1" fill-rule="nonzero"/></g><g clip-path="url(#80ccf822b0)"><path fill="#38b6ff" d="M 147.476562 188.523438 L 147.367188 188.5 C 147.101562 188.453125 146.835938 188.421875 146.585938 188.414062 L 146.484375 188.414062 L 146.457031 188.515625 C 146.277344 189.15625 146.082031 189.800781 145.886719 190.445312 L 145.8125 190.691406 L 147.402344 190.75 L 147.410156 190.621094 C 147.460938 189.847656 147.484375 189.214844 147.480469 188.628906 L 147.476562 188.523438 " fill-opacity="1" fill-rule="nonzero"/></g><path fill="#38b6ff" d="M 144.363281 194.527344 C 144.089844 195.136719 143.800781 195.6875 143.511719 196.167969 C 143.421875 196.320312 143.328125 196.472656 143.234375 196.625 L 142.988281 197.015625 L 146.082031 197.015625 L 146.113281 196.925781 C 146.378906 196.132812 146.597656 195.394531 146.78125 194.675781 L 146.816406 194.515625 L 144.402344 194.449219 L 144.363281 194.527344 " fill-opacity="1" fill-rule="nonzero"/><path fill="#38b6ff" d="M 114.773438 232.9375 L 141.488281 232.9375 L 141.488281 207.816406 C 141.273438 208.117188 141.054688 208.421875 140.839844 208.714844 C 133.832031 218.320312 124.871094 226.625 114.773438 232.9375 " fill-opacity="1" fill-rule="nonzero"/><path fill="#38b6ff" d="M 106.925781 231.910156 L 106.894531 231.925781 C 105.78125 232.558594 104.859375 233.066406 103.984375 233.523438 L 103.542969 233.757812 L 104.042969 233.773438 C 106.136719 233.84375 108.511719 233.921875 110.863281 233.921875 L 110.898438 233.921875 L 110.925781 233.902344 C 111.917969 233.34375 112.902344 232.742188 113.828125 232.175781 L 114.226562 231.933594 L 106.960938 231.910156 L 106.925781 231.910156 " fill-opacity="1" fill-rule="nonzero"/><path fill="#38b6ff" d="M 136.921875 205.671875 C 136.628906 206.0625 136.332031 206.453125 136.027344 206.839844 L 135.859375 207.046875 L 140.621094 207.046875 L 140.664062 206.996094 C 141.019531 206.488281 141.398438 205.9375 141.785156 205.351562 L 141.925781 205.148438 L 137.308594 205.164062 L 136.921875 205.671875 " fill-opacity="1" fill-rule="nonzero"/><path fill="#38b6ff" d="M 124.882812 210.203125 L 124.714844 210.378906 C 123.871094 211.246094 123.023438 212.105469 122.171875 212.964844 L 122.125 213.011719 L 122.136719 213.078125 C 122.453125 215.03125 122.609375 217.082031 122.609375 219.164062 L 122.609375 219.460938 L 122.832031 219.261719 C 123.785156 218.410156 124.746094 217.527344 125.683594 216.632812 L 125.726562 216.597656 L 125.71875 216.484375 C 125.679688 214.503906 125.417969 212.46875 124.9375 210.441406 L 124.882812 210.203125 " fill-opacity="1" fill-rule="nonzero"/><path fill="#38b6ff" d="M 134.941406 214.238281 C 135.847656 213.199219 136.648438 212.242188 137.398438 211.3125 L 137.566406 211.097656 L 137.292969 211.097656 C 135.699219 211.085938 134.007812 211.164062 132.316406 211.3125 L 132.261719 211.316406 L 132.230469 211.351562 C 131.308594 212.378906 130.53125 213.230469 129.726562 214.0625 L 129.511719 214.28125 L 134.898438 214.28125 L 134.941406 214.238281 " fill-opacity="1" fill-rule="nonzero"/><path fill="#38b6ff" d="M 71.113281 217.730469 L 71.0625 217.542969 L 70.90625 217.664062 C 70.167969 218.261719 69.4375 218.851562 68.6875 219.4375 L 68.625 219.488281 L 68.640625 219.566406 C 68.894531 220.882812 69.03125 222.230469 69.046875 223.566406 L 69.050781 223.816406 L 69.25 223.675781 C 70.023438 223.140625 70.71875 222.640625 71.378906 222.15625 L 71.429688 222.113281 L 71.425781 218.960938 C 71.351562 218.628906 71.25 218.183594 71.113281 217.730469 " fill-opacity="1" fill-rule="nonzero"/><path fill="#38b6ff" d="M 71.300781 233.246094 L 71.300781 228.398438 C 68.625 230.152344 65.824219 231.769531 62.910156 233.246094 L 71.300781 233.246094 " fill-opacity="1" fill-rule="nonzero"/><path fill="#38b6ff" d="M 67.371094 226.222656 L 67.308594 226.199219 L 67.253906 226.238281 C 66.652344 226.625 66.027344 227.007812 65.421875 227.378906 L 64.949219 227.667969 L 70.289062 227.6875 L 70.324219 227.660156 C 70.496094 227.546875 70.675781 227.425781 70.851562 227.3125 C 71.027344 227.195312 71.199219 227.085938 71.375 226.96875 L 71.429688 226.929688 L 71.429688 226.246094 L 67.46875 226.246094 C 67.441406 226.246094 67.40625 226.234375 67.371094 226.222656 " fill-opacity="1" fill-rule="nonzero"/><path fill="#38b6ff" d="M 71.320312 223.546875 L 71.25 223.511719 L 71.183594 223.558594 C 70.648438 223.941406 69.945312 224.449219 69.226562 224.929688 L 68.582031 225.375 L 71.429688 225.375 L 71.429688 223.597656 L 71.351562 223.5625 C 71.339844 223.554688 71.332031 223.550781 71.320312 223.546875 " fill-opacity="1" fill-rule="nonzero"/><path fill="#38b6ff" d="M 127.8125 221.550781 C 128.824219 220.617188 129.730469 219.753906 130.578125 218.90625 L 130.800781 218.679688 L 125.199219 218.679688 C 125.1875 218.679688 125.171875 218.675781 125.144531 218.667969 L 125.042969 218.644531 L 124.992188 218.691406 C 124.378906 219.253906 123.644531 219.917969 122.871094 220.582031 C 122.6875 220.75 122.5 220.90625 122.3125 221.0625 C 122.195312 221.15625 122.078125 221.253906 121.960938 221.351562 L 121.6875 221.582031 L 127.773438 221.582031 L 127.8125 221.550781 " fill-opacity="1" fill-rule="nonzero"/><path fill="#38b6ff" d="M 68.109375 224.449219 L 68.167969 224.40625 L 68.167969 224.339844 C 68.207031 222.984375 68.109375 221.625 67.890625 220.316406 L 67.851562 220.097656 L 67.679688 220.234375 C 67.011719 220.75 66.339844 221.265625 65.660156 221.785156 L 65.441406 221.949219 L 65.648438 226.039062 L 65.835938 225.921875 C 66.757812 225.339844 67.460938 224.886719 68.109375 224.449219 " fill-opacity="1" fill-rule="nonzero"/><path fill="#38b6ff" d="M 124.078125 224.800781 C 125.011719 224.035156 125.824219 223.339844 126.558594 222.6875 L 126.8125 222.457031 L 120.921875 222.457031 C 120.875 222.457031 120.835938 222.445312 120.785156 222.425781 L 120.714844 222.398438 L 120.660156 222.449219 C 119.820312 223.125 118.914062 223.859375 117.976562 224.578125 L 117.667969 224.8125 L 124.039062 224.832031 L 124.078125 224.800781 " fill-opacity="1" fill-rule="nonzero"/><path fill="#38b6ff" d="M 117.976562 223.269531 L 118.03125 223.230469 L 117.800781 217.257812 L 117.585938 217.464844 C 116.964844 218.058594 116.28125 218.699219 115.488281 219.429688 L 115.445312 219.472656 L 115.574219 225.074219 L 115.777344 224.929688 C 116.503906 224.402344 117.242188 223.84375 117.976562 223.269531 " fill-opacity="1" fill-rule="nonzero"/><path fill="#38b6ff" d="M 121.6875 220.253906 L 121.730469 220.21875 L 121.730469 220.160156 C 121.785156 218.113281 121.671875 216.0625 121.394531 214.042969 L 121.359375 213.78125 L 121.167969 213.96875 C 120.339844 214.796875 119.503906 215.621094 118.679688 216.414062 L 118.636719 216.453125 L 118.878906 222.570312 L 119.078125 222.410156 C 119.945312 221.714844 120.824219 220.992188 121.6875 220.253906 " fill-opacity="1" fill-rule="nonzero"/><path fill="#38b6ff" d="M 119.546875 228.328125 L 119.582031 228.304688 C 120.753906 227.4375 121.773438 226.664062 122.695312 225.9375 L 122.992188 225.703125 L 116.53125 225.679688 L 116.488281 225.679688 L 116.449219 225.703125 C 115.296875 226.550781 114.175781 227.34375 113.113281 228.066406 L 112.761719 228.304688 L 119.503906 228.328125 L 119.546875 228.328125 " fill-opacity="1" fill-rule="nonzero"/><path fill="#38b6ff" d="M 111.777344 227.722656 L 111.84375 227.683594 L 111.839844 227.605469 C 111.730469 226.207031 111.550781 224.796875 111.300781 223.402344 L 111.257812 223.175781 L 111.085938 223.324219 C 110.433594 223.875 109.855469 224.351562 109.320312 224.785156 L 109.269531 224.832031 L 109.542969 229.15625 L 109.734375 229.039062 C 110.355469 228.648438 111.003906 228.234375 111.777344 227.722656 " fill-opacity="1" fill-rule="nonzero"/><path fill="#38b6ff" d="M 115.535156 231.09375 L 115.582031 231.0625 C 116.460938 230.488281 117.25 229.953125 117.992188 229.425781 L 118.332031 229.191406 L 111.464844 229.167969 L 111.425781 229.167969 L 111.394531 229.1875 C 110.648438 229.664062 109.828125 230.175781 108.800781 230.800781 L 108.398438 231.042969 L 115.421875 231.0625 L 115.535156 231.09375 " fill-opacity="1" fill-rule="nonzero"/><path fill="#38b6ff" d="M 137.335938 197.054688 L 137.335938 197.097656 C 137.28125 199.023438 137.320312 200.976562 137.449219 202.886719 L 137.46875 203.253906 L 137.988281 202.539062 C 138.34375 202.046875 138.695312 201.5625 139.039062 201.066406 L 139.425781 200.507812 C 139.558594 200.3125 139.695312 200.117188 139.835938 199.921875 L 139.859375 199.886719 L 139.859375 193.964844 L 139.625 194.273438 C 138.921875 195.1875 138.160156 196.113281 137.367188 197.015625 L 137.335938 197.054688 " fill-opacity="1" fill-rule="nonzero"/><g clip-path="url(#9c3be2a1ad)"><path fill="#38b6ff" d="M 107.042969 146.886719 L 107.042969 141.359375 C 109.632812 141.363281 112.105469 141.519531 114.414062 141.773438 L 114.414062 146.992188 C 111.957031 146.855469 109.5 146.820312 107.042969 146.886719 Z M 85.980469 150.011719 L 85.980469 145 C 89.175781 143.8125 92.351562 142.972656 95.457031 142.394531 L 95.457031 147.960938 C 92.761719 148.386719 90.078125 148.9375 87.433594 149.621094 C 86.933594 149.75 86.449219 149.878906 85.980469 150.011719 Z M 76.738281 153.832031 C 76.105469 154.199219 75.121094 154.761719 74.398438 155.339844 L 74.398438 150.929688 C 75.527344 150.171875 76.6875 149.453125 77.871094 148.78125 L 78.175781 153.023438 C 77.871094 153.183594 77.578125 153.355469 77.285156 153.523438 C 77.117188 153.621094 76.933594 153.71875 76.738281 153.832031 Z M 62.777344 166.265625 C 65.933594 166.566406 69.085938 167.058594 72.214844 167.753906 L 73.570312 168.058594 C 73.570312 168.625 73.570312 169.191406 73.570312 169.765625 C 70.011719 168.828125 66.421875 168.171875 62.8125 167.800781 L 62.8125 166.445312 C 62.8125 166.382812 62.796875 166.320312 62.777344 166.265625 Z M 61.761719 172.78125 C 59.65625 172.683594 57.546875 172.652344 55.441406 172.6875 L 55.441406 168.488281 C 57.550781 168.480469 59.65625 168.566406 61.761719 168.757812 Z M 37.0625 174.632812 C 36.492188 174.75 35.957031 174.863281 35.433594 174.984375 L 35.433594 171.515625 C 38.535156 170.558594 41.703125 169.835938 44.910156 169.324219 L 44.910156 173.386719 C 42.269531 173.699219 39.648438 174.109375 37.0625 174.632812 Z M 27.359375 177.636719 C 27.042969 177.777344 26.488281 178.023438 25.953125 178.300781 L 25.953125 175.210938 C 26.65625 174.875 27.355469 174.550781 28.0625 174.242188 L 28.0625 177.316406 C 27.988281 177.347656 27.914062 177.378906 27.839844 177.410156 Z M 26.292969 171.664062 C 26.875 171.417969 27.46875 171.203125 28.0625 170.976562 L 28.0625 173.101562 C 27.355469 173.402344 26.65625 173.722656 25.953125 174.054688 L 25.953125 172.164062 C 25.953125 171.941406 26.085938 171.746094 26.292969 171.664062 Z M 35.433594 168.574219 C 38.558594 167.730469 41.722656 167.085938 44.910156 166.644531 L 44.910156 168.257812 C 41.703125 168.761719 38.539062 169.46875 35.433594 170.410156 Z M 34.378906 171.855469 L 34.378906 175.226562 C 32.347656 175.71875 30.644531 176.253906 29.113281 176.867188 L 29.113281 173.804688 C 30.847656 173.082031 32.601562 172.433594 34.378906 171.855469 Z M 29.113281 172.667969 L 29.113281 170.660156 L 28.878906 170.660156 C 30.699219 169.988281 32.53125 169.390625 34.378906 168.863281 L 34.378906 170.75 C 32.601562 171.316406 30.847656 171.953125 29.113281 172.667969 Z M 54.386719 168.492188 L 54.386719 172.695312 C 51.570312 172.769531 48.757812 172.957031 45.964844 173.261719 L 45.964844 169.164062 C 46.160156 169.136719 46.359375 169.097656 46.558594 169.074219 C 49.167969 168.722656 51.78125 168.542969 54.386719 168.492188 Z M 46.421875 168.027344 C 46.269531 168.050781 46.117188 168.078125 45.964844 168.097656 L 45.964844 166.492188 C 48.757812 166.144531 51.570312 165.953125 54.386719 165.917969 L 54.386719 167.441406 C 51.730469 167.488281 49.078125 167.675781 46.421875 168.027344 Z M 61.761719 167.695312 C 59.65625 167.515625 57.550781 167.429688 55.441406 167.4375 L 55.441406 165.914062 C 57.570312 165.914062 59.703125 166.007812 61.839844 166.183594 C 61.792969 166.261719 61.761719 166.351562 61.761719 166.445312 Z M 75.429688 146.207031 C 76.148438 145.839844 76.878906 145.488281 77.613281 145.148438 L 77.789062 147.625 C 76.632812 148.269531 75.503906 148.953125 74.398438 149.675781 L 74.398438 147.90625 C 74.398438 147.183594 74.792969 146.53125 75.429688 146.207031 Z M 84.925781 145.410156 L 84.925781 150.320312 C 82.726562 150.984375 80.859375 151.695312 79.191406 152.507812 L 78.890625 148.222656 C 79.742188 147.765625 80.601562 147.316406 81.46875 146.90625 C 82.621094 146.355469 83.777344 145.867188 84.925781 145.410156 Z M 83.523438 142.710938 C 83.949219 142.558594 84.425781 142.394531 84.925781 142.230469 L 84.925781 144.28125 C 83.625 144.78125 82.320312 145.332031 81.015625 145.949219 C 80.269531 146.304688 79.539062 146.683594 78.804688 147.070312 L 78.636719 144.6875 C 80.246094 143.96875 81.875 143.300781 83.523438 142.710938 Z M 105.988281 141.371094 L 105.988281 146.921875 C 102.816406 147.046875 99.648438 147.335938 96.511719 147.796875 L 96.511719 142.207031 C 99.78125 141.660156 102.960938 141.410156 105.988281 141.371094 Z M 95.457031 141.324219 C 92.355469 141.890625 89.179688 142.71875 85.980469 143.886719 L 85.980469 142.214844 C 85.980469 142.101562 85.941406 142.007812 85.882812 141.921875 C 88.351562 141.144531 91.585938 140.289062 95.457031 139.621094 Z M 96.511719 139.457031 C 99.375 139.007812 102.554688 138.675781 105.988281 138.5625 L 105.988281 140.320312 C 102.957031 140.359375 99.78125 140.601562 96.511719 141.136719 Z M 109.667969 138.527344 C 111.289062 138.550781 112.894531 138.644531 114.507812 138.773438 C 114.449219 138.855469 114.414062 138.945312 114.414062 139.054688 L 114.414062 140.714844 C 112.101562 140.46875 109.632812 140.3125 107.042969 140.308594 L 107.042969 138.535156 C 107.90625 138.519531 108.773438 138.515625 109.667969 138.527344 Z M 140.113281 146.46875 C 140.925781 147.550781 141.4375 148.828125 141.605469 150.15625 C 141.265625 149.824219 140.917969 149.5 140.554688 149.1875 C 139.652344 148.414062 138.027344 147.515625 135.476562 146.371094 L 135.476562 143.433594 C 135.914062 143.597656 136.355469 143.746094 136.792969 143.917969 C 138.101562 144.433594 139.246094 145.3125 140.113281 146.46875 Z M 136.488281 151.566406 C 136.160156 151.410156 135.820312 151.257812 135.476562 151.109375 L 135.476562 147.527344 C 137.660156 148.527344 139.101562 149.332031 139.871094 149.988281 C 140.507812 150.53125 141.097656 151.125 141.644531 151.742188 L 141.417969 156.761719 C 141.355469 156.59375 141.28125 156.429688 141.1875 156.273438 C 139.773438 153.871094 138.371094 152.464844 136.488281 151.566406 Z M 127.40625 148.699219 C 126.941406 148.601562 126.464844 148.515625 125.996094 148.425781 L 125.996094 144.003906 C 128.957031 144.828125 130.933594 145.597656 131.59375 145.863281 C 132.636719 146.289062 133.570312 146.683594 134.421875 147.054688 L 134.421875 150.6875 C 132.425781 149.917969 130.144531 149.277344 127.40625 148.699219 Z M 124.945312 143.71875 L 124.945312 148.222656 C 121.808594 147.664062 118.648438 147.28125 115.46875 147.0625 L 115.46875 141.902344 C 119.132812 142.359375 122.351562 143.039062 124.945312 143.71875 Z M 124.945312 142.632812 C 122.332031 141.960938 119.117188 141.292969 115.46875 140.84375 L 115.46875 139.054688 C 115.46875 138.980469 115.449219 138.914062 115.425781 138.847656 C 118.625 139.140625 121.800781 139.632812 124.945312 140.324219 Z M 134.421875 145.910156 C 133.671875 145.585938 132.878906 145.25 131.988281 144.886719 C 131.296875 144.605469 129.167969 143.785156 125.996094 142.914062 L 125.996094 140.558594 C 128.851562 141.226562 131.675781 142.0625 134.464844 143.0625 C 134.4375 143.125 134.421875 143.195312 134.421875 143.269531 Z M 130.867188 202.257812 C 131.429688 201.671875 131.988281 201.082031 132.554688 200.492188 C 133.835938 199.15625 135.140625 197.796875 136.390625 196.386719 C 136.433594 196.25 136.53125 196.136719 136.660156 196.078125 C 137.933594 194.621094 139.136719 193.101562 140.1875 191.5 C 140.652344 190.789062 141.082031 190.054688 141.488281 189.296875 L 141.488281 172.183594 C 141.660156 172.101562 141.785156 171.9375 141.792969 171.738281 L 142.6875 152.066406 C 142.878906 151.871094 142.902344 151.5625 142.722656 151.355469 C 142.71875 151.351562 142.714844 151.347656 142.710938 151.339844 C 142.757812 149.367188 142.144531 147.417969 140.953125 145.835938 C 139.972656 144.527344 138.667969 143.523438 137.179688 142.9375 C 128.324219 139.457031 119.074219 137.617188 109.683594 137.472656 C 108.636719 137.457031 107.617188 137.46875 106.613281 137.492188 C 106.582031 137.484375 106.546875 137.472656 106.515625 137.472656 C 106.46875 137.472656 106.429688 137.488281 106.386719 137.5 C 95.683594 137.785156 87.378906 140.207031 83.171875 141.714844 C 81.445312 142.335938 79.730469 143.042969 78.050781 143.796875 C 78.050781 143.796875 78.046875 143.796875 78.046875 143.796875 C 77.921875 143.808594 77.816406 143.859375 77.730469 143.941406 C 76.796875 144.367188 75.867188 144.808594 74.953125 145.269531 C 73.960938 145.773438 73.34375 146.785156 73.34375 147.90625 L 73.34375 156.964844 C 73.34375 157.105469 73.402344 157.238281 73.5 157.332031 C 73.5 157.382812 73.503906 157.429688 73.507812 157.472656 C 73.542969 157.761719 73.5625 158.035156 73.5625 158.304688 C 73.574219 161.199219 73.570312 164.085938 73.570312 166.976562 L 72.445312 166.726562 C 56.816406 163.25 40.714844 164.621094 25.894531 170.6875 C 25.292969 170.933594 24.902344 171.511719 24.902344 172.164062 L 24.902344 178.820312 L 25.046875 178.820312 C 24.800781 178.988281 24.605469 179.148438 24.527344 179.285156 C 24.511719 179.355469 24.546875 179.652344 24.574219 179.828125 C 24.59375 180.054688 24.617188 180.277344 24.625 180.476562 C 24.640625 183.28125 24.628906 186.082031 24.625 188.878906 C 24.625 190.289062 24.625 191.683594 24.625 193.078125 L 24.625 233.246094 L 44.820312 233.246094 C 54.859375 228.695312 63.3125 222.367188 71.300781 215.867188 L 71.300781 176.015625 C 71.300781 175.238281 71.300781 174.445312 71.300781 173.660156 C 68.492188 173.257812 65.660156 172.984375 62.8125 172.824219 L 62.8125 168.859375 C 66.421875 169.238281 70.011719 169.902344 73.570312 170.851562 C 73.566406 172.570312 73.5625 174.296875 73.5625 176.015625 L 73.5625 232.9375 L 95.59375 232.9375 C 109.246094 225.128906 120.234375 213.507812 130.867188 202.257812 " fill-opacity="1" fill-rule="nonzero"/></g><path fill="#38b6ff" d="M 112.667969 227.125 L 113.175781 226.777344 C 113.683594 226.433594 114.191406 226.089844 114.691406 225.734375 L 114.769531 225.679688 L 114.738281 225.585938 C 114.726562 225.554688 114.714844 225.515625 114.714844 225.492188 L 114.59375 220.234375 L 114.382812 220.425781 C 113.621094 221.117188 112.84375 221.804688 112.074219 222.464844 L 112.015625 222.511719 L 112.03125 222.585938 C 112.316406 224.042969 112.523438 225.496094 112.648438 226.898438 L 112.667969 227.125 " fill-opacity="1" fill-rule="nonzero"/><g fill="#ffffff" fill-opacity="1"><g transform="translate(161.819115, 184.0551)"><g><path d="M 1.65625 -28.875 L 6.1875 -28.875 L 6.1875 -4.125 L 13.65625 -4.125 L 13.65625 0 L 1.65625 0 Z M 1.65625 -28.875 "/></g></g></g><g fill="#ffffff" fill-opacity="1"><g transform="translate(181.990379, 184.0551)"><g><path d="M 5.8125 -6.640625 C 5.8125 -5.597656 6.023438 -4.863281 6.453125 -4.4375 C 6.878906 -4.007812 7.453125 -3.796875 8.171875 -3.796875 C 8.878906 -3.796875 9.445312 -4.007812 9.875 -4.4375 C 10.300781 -4.863281 10.515625 -5.597656 10.515625 -6.640625 L 10.515625 -22.234375 C 10.515625 -23.273438 10.300781 -24.007812 9.875 -24.4375 C 9.445312 -24.863281 8.878906 -25.078125 8.171875 -25.078125 C 7.453125 -25.078125 6.878906 -24.863281 6.453125 -24.4375 C 6.023438 -24.007812 5.8125 -23.273438 5.8125 -22.234375 Z M 1.28125 -21.9375 C 1.28125 -24.28125 1.867188 -26.078125 3.046875 -27.328125 C 4.234375 -28.578125 5.941406 -29.203125 8.171875 -29.203125 C 10.398438 -29.203125 12.101562 -28.578125 13.28125 -27.328125 C 14.46875 -26.078125 15.0625 -24.28125 15.0625 -21.9375 L 15.0625 -6.9375 C 15.0625 -4.59375 14.46875 -2.796875 13.28125 -1.546875 C 12.101562 -0.296875 10.398438 0.328125 8.171875 0.328125 C 5.941406 0.328125 4.234375 -0.296875 3.046875 -1.546875 C 1.867188 -2.796875 1.28125 -4.59375 1.28125 -6.9375 Z M 1.28125 -21.9375 "/></g></g></g><g fill="#ffffff" fill-opacity="1"><g transform="translate(204.512899, 184.0551)"><g><path d="M 1.078125 -21.9375 C 1.078125 -24.28125 1.628906 -26.078125 2.734375 -27.328125 C 3.847656 -28.578125 5.519531 -29.203125 7.75 -29.203125 C 9.976562 -29.203125 11.648438 -28.578125 12.765625 -27.328125 C 13.878906 -26.078125 14.4375 -24.28125 14.4375 -21.9375 L 14.4375 -21.03125 L 10.140625 -21.03125 L 10.140625 -22.234375 C 10.140625 -23.273438 9.941406 -24.007812 9.546875 -24.4375 C 9.148438 -24.863281 8.59375 -25.078125 7.875 -25.078125 C 7.164062 -25.078125 6.609375 -24.863281 6.203125 -24.4375 C 5.804688 -24.007812 5.609375 -23.273438 5.609375 -22.234375 C 5.609375 -21.242188 5.828125 -20.367188 6.265625 -19.609375 C 6.710938 -18.859375 7.265625 -18.144531 7.921875 -17.46875 C 8.578125 -16.789062 9.28125 -16.113281 10.03125 -15.4375 C 10.789062 -14.769531 11.5 -14.035156 12.15625 -13.234375 C 12.820312 -12.441406 13.375 -11.535156 13.8125 -10.515625 C 14.257812 -9.503906 14.484375 -8.3125 14.484375 -6.9375 C 14.484375 -4.59375 13.910156 -2.796875 12.765625 -1.546875 C 11.628906 -0.296875 9.945312 0.328125 7.71875 0.328125 C 5.488281 0.328125 3.800781 -0.296875 2.65625 -1.546875 C 1.519531 -2.796875 0.953125 -4.59375 0.953125 -6.9375 L 0.953125 -8.703125 L 5.234375 -8.703125 L 5.234375 -6.640625 C 5.234375 -5.597656 5.445312 -4.867188 5.875 -4.453125 C 6.300781 -4.046875 6.875 -3.84375 7.59375 -3.84375 C 8.300781 -3.84375 8.867188 -4.046875 9.296875 -4.453125 C 9.722656 -4.867188 9.9375 -5.597656 9.9375 -6.640625 C 9.9375 -7.628906 9.71875 -8.5 9.28125 -9.25 C 8.84375 -10.007812 8.289062 -10.726562 7.625 -11.40625 C 6.96875 -12.082031 6.257812 -12.753906 5.5 -13.421875 C 4.75 -14.097656 4.039062 -14.832031 3.375 -15.625 C 2.71875 -16.425781 2.171875 -17.332031 1.734375 -18.34375 C 1.296875 -19.363281 1.078125 -20.5625 1.078125 -21.9375 Z M 1.078125 -21.9375 "/></g></g></g><g fill="#ffffff" fill-opacity="1"><g transform="translate(226.127915, 184.0551)"><g><path d="M 1.078125 -21.9375 C 1.078125 -24.28125 1.628906 -26.078125 2.734375 -27.328125 C 3.847656 -28.578125 5.519531 -29.203125 7.75 -29.203125 C 9.976562 -29.203125 11.648438 -28.578125 12.765625 -27.328125 C 13.878906 -26.078125 14.4375 -24.28125 14.4375 -21.9375 L 14.4375 -21.03125 L 10.140625 -21.03125 L 10.140625 -22.234375 C 10.140625 -23.273438 9.941406 -24.007812 9.546875 -24.4375 C 9.148438 -24.863281 8.59375 -25.078125 7.875 -25.078125 C 7.164062 -25.078125 6.609375 -24.863281 6.203125 -24.4375 C 5.804688 -24.007812 5.609375 -23.273438 5.609375 -22.234375 C 5.609375 -21.242188 5.828125 -20.367188 6.265625 -19.609375 C 6.710938 -18.859375 7.265625 -18.144531 7.921875 -17.46875 C 8.578125 -16.789062 9.28125 -16.113281 10.03125 -15.4375 C 10.789062 -14.769531 11.5 -14.035156 12.15625 -13.234375 C 12.820312 -12.441406 13.375 -11.535156 13.8125 -10.515625 C 14.257812 -9.503906 14.484375 -8.3125 14.484375 -6.9375 C 14.484375 -4.59375 13.910156 -2.796875 12.765625 -1.546875 C 11.628906 -0.296875 9.945312 0.328125 7.71875 0.328125 C 5.488281 0.328125 3.800781 -0.296875 2.65625 -1.546875 C 1.519531 -2.796875 0.953125 -4.59375 0.953125 -6.9375 L 0.953125 -8.703125 L 5.234375 -8.703125 L 5.234375 -6.640625 C 5.234375 -5.597656 5.445312 -4.867188 5.875 -4.453125 C 6.300781 -4.046875 6.875 -3.84375 7.59375 -3.84375 C 8.300781 -3.84375 8.867188 -4.046875 9.296875 -4.453125 C 9.722656 -4.867188 9.9375 -5.597656 9.9375 -6.640625 C 9.9375 -7.628906 9.71875 -8.5 9.28125 -9.25 C 8.84375 -10.007812 8.289062 -10.726562 7.625 -11.40625 C 6.96875 -12.082031 6.257812 -12.753906 5.5 -13.421875 C 4.75 -14.097656 4.039062 -14.832031 3.375 -15.625 C 2.71875 -16.425781 2.171875 -17.332031 1.734375 -18.34375 C 1.296875 -19.363281 1.078125 -20.5625 1.078125 -21.9375 Z M 1.078125 -21.9375 "/></g></g></g><g fill="#ffffff" fill-opacity="1"><g transform="translate(247.742931, 184.0551)"><g><path d="M 6.1875 -16.703125 L 12.421875 -16.703125 L 12.421875 -12.578125 L 6.1875 -12.578125 L 6.1875 -4.125 L 14.03125 -4.125 L 14.03125 0 L 1.65625 0 L 1.65625 -28.875 L 14.03125 -28.875 L 14.03125 -24.75 L 6.1875 -24.75 Z M 6.1875 -16.703125 "/></g></g></g><g fill="#ffffff" fill-opacity="1"><g transform="translate(269.110445, 184.0551)"><g><path d="M 1.078125 -21.9375 C 1.078125 -24.28125 1.628906 -26.078125 2.734375 -27.328125 C 3.847656 -28.578125 5.519531 -29.203125 7.75 -29.203125 C 9.976562 -29.203125 11.648438 -28.578125 12.765625 -27.328125 C 13.878906 -26.078125 14.4375 -24.28125 14.4375 -21.9375 L 14.4375 -21.03125 L 10.140625 -21.03125 L 10.140625 -22.234375 C 10.140625 -23.273438 9.941406 -24.007812 9.546875 -24.4375 C 9.148438 -24.863281 8.59375 -25.078125 7.875 -25.078125 C 7.164062 -25.078125 6.609375 -24.863281 6.203125 -24.4375 C 5.804688 -24.007812 5.609375 -23.273438 5.609375 -22.234375 C 5.609375 -21.242188 5.828125 -20.367188 6.265625 -19.609375 C 6.710938 -18.859375 7.265625 -18.144531 7.921875 -17.46875 C 8.578125 -16.789062 9.28125 -16.113281 10.03125 -15.4375 C 10.789062 -14.769531 11.5 -14.035156 12.15625 -13.234375 C 12.820312 -12.441406 13.375 -11.535156 13.8125 -10.515625 C 14.257812 -9.503906 14.484375 -8.3125 14.484375 -6.9375 C 14.484375 -4.59375 13.910156 -2.796875 12.765625 -1.546875 C 11.628906 -0.296875 9.945312 0.328125 7.71875 0.328125 C 5.488281 0.328125 3.800781 -0.296875 2.65625 -1.546875 C 1.519531 -2.796875 0.953125 -4.59375 0.953125 -6.9375 L 0.953125 -8.703125 L 5.234375 -8.703125 L 5.234375 -6.640625 C 5.234375 -5.597656 5.445312 -4.867188 5.875 -4.453125 C 6.300781 -4.046875 6.875 -3.84375 7.59375 -3.84375 C 8.300781 -3.84375 8.867188 -4.046875 9.296875 -4.453125 C 9.722656 -4.867188 9.9375 -5.597656 9.9375 -6.640625 C 9.9375 -7.628906 9.71875 -8.5 9.28125 -9.25 C 8.84375 -10.007812 8.289062 -10.726562 7.625 -11.40625 C 6.96875 -12.082031 6.257812 -12.753906 5.5 -13.421875 C 4.75 -14.097656 4.039062 -14.832031 3.375 -15.625 C 2.71875 -16.425781 2.171875 -17.332031 1.734375 -18.34375 C 1.296875 -19.363281 1.078125 -20.5625 1.078125 -21.9375 Z M 1.078125 -21.9375 "/></g></g></g><g fill="#ffffff" fill-opacity="1"><g transform="translate(161.819115, 210.025738)"><g><path d="M 2.6875 -9.734375 C 3.457031 -9.734375 4.007812 -9.519531 4.34375 -9.09375 C 4.6875 -8.675781 4.859375 -8.097656 4.859375 -7.359375 L 4.859375 -6.1875 C 4.859375 -5.40625 4.675781 -4.816406 4.3125 -4.421875 C 3.945312 -4.035156 3.375 -3.84375 2.59375 -3.84375 L 1.640625 -3.84375 L 1.640625 0 L 0.5625 0 L 0.5625 -9.734375 Z M 2.59375 -4.8125 C 3.007812 -4.8125 3.3125 -4.910156 3.5 -5.109375 C 3.695312 -5.304688 3.796875 -5.644531 3.796875 -6.125 L 3.796875 -7.40625 C 3.796875 -7.851562 3.707031 -8.1875 3.53125 -8.40625 C 3.363281 -8.632812 3.082031 -8.75 2.6875 -8.75 L 1.640625 -8.75 L 1.640625 -4.8125 Z M 2.59375 -4.8125 "/></g></g></g><g fill="#ffffff" fill-opacity="1"><g transform="translate(169.10845, 210.025738)"><g><path d="M 0.46875 -7.390625 C 0.46875 -8.140625 0.648438 -8.734375 1.015625 -9.171875 C 1.390625 -9.609375 1.953125 -9.828125 2.703125 -9.828125 C 3.453125 -9.828125 4.007812 -9.609375 4.375 -9.171875 C 4.75 -8.734375 4.9375 -8.140625 4.9375 -7.390625 L 4.9375 -2.34375 C 4.9375 -1.601562 4.75 -1.007812 4.375 -0.5625 C 4.007812 -0.125 3.453125 0.09375 2.703125 0.09375 C 1.953125 0.09375 1.390625 -0.125 1.015625 -0.5625 C 0.648438 -1.007812 0.46875 -1.601562 0.46875 -2.34375 Z M 1.546875 -2.296875 C 1.546875 -1.847656 1.640625 -1.5 1.828125 -1.25 C 2.015625 -1.007812 2.304688 -0.890625 2.703125 -0.890625 C 3.097656 -0.890625 3.390625 -1.007812 3.578125 -1.25 C 3.765625 -1.5 3.859375 -1.847656 3.859375 -2.296875 L 3.859375 -7.4375 C 3.859375 -7.882812 3.765625 -8.226562 3.578125 -8.46875 C 3.390625 -8.71875 3.097656 -8.84375 2.703125 -8.84375 C 2.304688 -8.84375 2.015625 -8.71875 1.828125 -8.46875 C 1.640625 -8.226562 1.546875 -7.882812 1.546875 -7.4375 Z M 1.546875 -2.296875 "/></g></g></g><g fill="#ffffff" fill-opacity="1"><g transform="translate(176.606433, 210.025738)"><g><path d="M 2.71875 -9.734375 C 3.488281 -9.734375 4.039062 -9.539062 4.375 -9.15625 C 4.71875 -8.78125 4.890625 -8.234375 4.890625 -7.515625 L 4.890625 -6.71875 C 4.890625 -6.175781 4.789062 -5.738281 4.59375 -5.40625 C 4.40625 -5.070312 4.101562 -4.84375 3.6875 -4.71875 C 4.132812 -4.582031 4.445312 -4.335938 4.625 -3.984375 C 4.8125 -3.640625 4.90625 -3.207031 4.90625 -2.6875 L 4.90625 -1.171875 C 4.90625 -0.953125 4.914062 -0.742188 4.9375 -0.546875 C 4.957031 -0.347656 5.015625 -0.164062 5.109375 0 L 4 0 C 3.9375 -0.132812 3.890625 -0.28125 3.859375 -0.4375 C 3.835938 -0.601562 3.828125 -0.851562 3.828125 -1.1875 L 3.828125 -2.71875 C 3.828125 -3.257812 3.703125 -3.632812 3.453125 -3.84375 C 3.210938 -4.050781 2.863281 -4.15625 2.40625 -4.15625 L 1.640625 -4.15625 L 1.640625 0 L 0.5625 0 L 0.5625 -9.734375 Z M 2.453125 -5.140625 C 2.878906 -5.140625 3.210938 -5.226562 3.453125 -5.40625 C 3.703125 -5.59375 3.828125 -5.953125 3.828125 -6.484375 L 3.828125 -7.40625 C 3.828125 -7.851562 3.738281 -8.1875 3.5625 -8.40625 C 3.394531 -8.632812 3.109375 -8.75 2.703125 -8.75 L 1.640625 -8.75 L 1.640625 -5.140625 Z M 2.453125 -5.140625 "/></g></g></g><g fill="#ffffff" fill-opacity="1"><g transform="translate(184.173974, 210.025738)"><g><path d="M 2.703125 -9.828125 C 3.453125 -9.828125 4.007812 -9.609375 4.375 -9.171875 C 4.75 -8.734375 4.9375 -8.140625 4.9375 -7.390625 L 4.9375 -2.34375 C 4.9375 -1.726562 4.8125 -1.222656 4.5625 -0.828125 C 4.613281 -0.710938 4.6875 -0.632812 4.78125 -0.59375 C 4.875 -0.550781 5 -0.53125 5.15625 -0.53125 L 5.296875 -0.53125 L 5.296875 0.4375 L 5.125 0.4375 C 4.53125 0.4375 4.113281 0.226562 3.875 -0.1875 C 3.71875 -0.101562 3.539062 -0.0351562 3.34375 0.015625 C 3.15625 0.0664062 2.941406 0.09375 2.703125 0.09375 C 1.953125 0.09375 1.390625 -0.125 1.015625 -0.5625 C 0.648438 -1.007812 0.46875 -1.601562 0.46875 -2.34375 L 0.46875 -7.390625 C 0.46875 -8.140625 0.648438 -8.734375 1.015625 -9.171875 C 1.390625 -9.609375 1.953125 -9.828125 2.703125 -9.828125 Z M 2.703125 -8.84375 C 2.304688 -8.84375 2.015625 -8.71875 1.828125 -8.46875 C 1.640625 -8.226562 1.546875 -7.882812 1.546875 -7.4375 L 1.546875 -2.296875 C 1.546875 -1.847656 1.640625 -1.5 1.828125 -1.25 C 2.015625 -1.007812 2.304688 -0.890625 2.703125 -0.890625 C 3.097656 -0.890625 3.390625 -1.007812 3.578125 -1.25 C 3.765625 -1.5 3.859375 -1.847656 3.859375 -2.296875 L 3.859375 -7.4375 C 3.859375 -7.882812 3.765625 -8.226562 3.578125 -8.46875 C 3.390625 -8.71875 3.097656 -8.84375 2.703125 -8.84375 Z M 2.703125 -8.84375 "/></g></g></g><g fill="#ffffff" fill-opacity="1"><g transform="translate(191.713693, 210.025738)"><g><path d="M 1.578125 -2.296875 C 1.578125 -1.847656 1.664062 -1.5 1.84375 -1.25 C 2.03125 -1.007812 2.320312 -0.890625 2.71875 -0.890625 C 3.113281 -0.890625 3.398438 -1.007812 3.578125 -1.25 C 3.765625 -1.5 3.859375 -1.847656 3.859375 -2.296875 L 3.859375 -9.734375 L 4.859375 -9.734375 L 4.859375 -2.34375 C 4.859375 -1.601562 4.679688 -1.007812 4.328125 -0.5625 C 3.984375 -0.113281 3.4375 0.109375 2.6875 0.109375 C 1.945312 0.109375 1.398438 -0.113281 1.046875 -0.5625 C 0.691406 -1.007812 0.515625 -1.601562 0.515625 -2.34375 L 0.515625 -9.734375 L 1.578125 -9.734375 Z M 1.578125 -2.296875 "/></g></g></g><g fill="#ffffff" fill-opacity="1"><g transform="translate(199.183855, 210.025738)"><g><path d="M 4.015625 -5.421875 L 4.015625 -4.453125 L 1.640625 -4.453125 L 1.640625 -0.984375 L 4.5625 -0.984375 L 4.5625 0 L 0.5625 0 L 0.5625 -9.734375 L 4.5625 -9.734375 L 4.5625 -8.75 L 1.640625 -8.75 L 1.640625 -5.421875 Z M 4.015625 -5.421875 "/></g></g></g><g fill="#ffffff" fill-opacity="1"><g transform="translate(206.278445, 210.025738)"><g/></g></g><g fill="#ffffff" fill-opacity="1"><g transform="translate(210.521465, 210.025738)"><g><path d="M 0.5625 0 L 0.5625 -9.734375 L 1.640625 -9.734375 L 1.640625 -0.984375 L 4.421875 -0.984375 L 4.421875 0 Z M 0.5625 0 "/></g></g></g><g fill="#ffffff" fill-opacity="1"><g transform="translate(217.296126, 210.025738)"><g><path d="M 1.65625 -1.953125 L 1.28125 0 L 0.28125 0 L 2.140625 -9.734375 L 3.71875 -9.734375 L 5.578125 0 L 4.484375 0 L 4.109375 -1.953125 Z M 1.796875 -2.890625 L 3.96875 -2.890625 L 2.859375 -8.515625 Z M 1.796875 -2.890625 "/></g></g></g><g fill="#ffffff" fill-opacity="1"><g transform="translate(225.253146, 210.025738)"><g/></g></g><g fill="#ffffff" fill-opacity="1"><g transform="translate(229.496168, 210.025738)"><g><path d="M 4.140625 -0.015625 L 3.09375 -0.015625 L 1.484375 -7.765625 L 1.484375 0 L 0.546875 0 L 0.546875 -9.734375 L 2.0625 -9.734375 L 3.65625 -1.953125 L 5.203125 -9.734375 L 6.71875 -9.734375 L 6.71875 0 L 5.6875 0 L 5.6875 -7.828125 Z M 4.140625 -0.015625 "/></g></g></g><g fill="#ffffff" fill-opacity="1"><g transform="translate(238.85811, 210.025738)"><g><path d="M 1.65625 -1.953125 L 1.28125 0 L 0.28125 0 L 2.140625 -9.734375 L 3.71875 -9.734375 L 5.578125 0 L 4.484375 0 L 4.109375 -1.953125 Z M 1.796875 -2.890625 L 3.96875 -2.890625 L 2.859375 -8.515625 Z M 1.796875 -2.890625 "/></g></g></g><g fill="#ffffff" fill-opacity="1"><g transform="translate(246.815129, 210.025738)"><g><path d="M 2.59375 -9.828125 C 3.34375 -9.828125 3.890625 -9.609375 4.234375 -9.171875 C 4.585938 -8.734375 4.765625 -8.140625 4.765625 -7.390625 L 4.765625 -7.140625 L 3.734375 -7.140625 L 3.734375 -7.453125 C 3.734375 -7.898438 3.644531 -8.242188 3.46875 -8.484375 C 3.300781 -8.722656 3.019531 -8.84375 2.625 -8.84375 C 2.238281 -8.84375 1.957031 -8.722656 1.78125 -8.484375 C 1.601562 -8.242188 1.515625 -7.90625 1.515625 -7.46875 C 1.515625 -7.101562 1.59375 -6.785156 1.75 -6.515625 C 1.914062 -6.253906 2.117188 -6.007812 2.359375 -5.78125 C 2.597656 -5.550781 2.859375 -5.328125 3.140625 -5.109375 C 3.429688 -4.890625 3.695312 -4.648438 3.9375 -4.390625 C 4.175781 -4.128906 4.375 -3.832031 4.53125 -3.5 C 4.695312 -3.175781 4.78125 -2.789062 4.78125 -2.34375 C 4.78125 -1.59375 4.601562 -1 4.25 -0.5625 C 3.894531 -0.125 3.34375 0.09375 2.59375 0.09375 C 1.832031 0.09375 1.273438 -0.125 0.921875 -0.5625 C 0.578125 -1 0.40625 -1.59375 0.40625 -2.34375 L 0.40625 -2.890625 L 1.421875 -2.890625 L 1.421875 -2.28125 C 1.421875 -1.832031 1.507812 -1.488281 1.6875 -1.25 C 1.875 -1.007812 2.164062 -0.890625 2.5625 -0.890625 C 2.945312 -0.890625 3.234375 -1.007812 3.421875 -1.25 C 3.609375 -1.488281 3.703125 -1.832031 3.703125 -2.28125 C 3.703125 -2.644531 3.617188 -2.957031 3.453125 -3.21875 C 3.296875 -3.476562 3.09375 -3.722656 2.84375 -3.953125 C 2.601562 -4.179688 2.34375 -4.40625 2.0625 -4.625 C 1.789062 -4.84375 1.535156 -5.082031 1.296875 -5.34375 C 1.054688 -5.601562 0.851562 -5.894531 0.6875 -6.21875 C 0.519531 -6.550781 0.4375 -6.941406 0.4375 -7.390625 C 0.4375 -8.148438 0.613281 -8.742188 0.96875 -9.171875 C 1.320312 -9.609375 1.863281 -9.828125 2.59375 -9.828125 Z M 2.59375 -9.828125 "/></g></g></g><g fill="#ffffff" fill-opacity="1"><g transform="translate(254.076645, 210.025738)"><g><path d="M 1.65625 -1.953125 L 1.28125 0 L 0.28125 0 L 2.140625 -9.734375 L 3.71875 -9.734375 L 5.578125 0 L 4.484375 0 L 4.109375 -1.953125 Z M 1.796875 -2.890625 L 3.96875 -2.890625 L 2.859375 -8.515625 Z M 1.796875 -2.890625 "/></g></g></g><g fill="#ffffff" fill-opacity="1"><g transform="translate(262.033659, 210.025738)"><g/></g></g><g fill="#ffffff" fill-opacity="1"><g transform="translate(266.276681, 210.025738)"><g><path d="M 1.515625 0 L 0.546875 0 L 0.546875 -9.734375 L 1.921875 -9.734375 L 4.171875 -2.703125 L 4.171875 -9.734375 L 5.125 -9.734375 L 5.125 0 L 4 0 L 1.515625 -7.875 Z M 1.515625 0 "/></g></g></g><g fill="#ffffff" fill-opacity="1"><g transform="translate(274.052873, 210.025738)"><g><path d="M 0.46875 -7.390625 C 0.46875 -8.140625 0.648438 -8.734375 1.015625 -9.171875 C 1.390625 -9.609375 1.953125 -9.828125 2.703125 -9.828125 C 3.453125 -9.828125 4.007812 -9.609375 4.375 -9.171875 C 4.75 -8.734375 4.9375 -8.140625 4.9375 -7.390625 L 4.9375 -2.34375 C 4.9375 -1.601562 4.75 -1.007812 4.375 -0.5625 C 4.007812 -0.125 3.453125 0.09375 2.703125 0.09375 C 1.953125 0.09375 1.390625 -0.125 1.015625 -0.5625 C 0.648438 -1.007812 0.46875 -1.601562 0.46875 -2.34375 Z M 1.546875 -2.296875 C 1.546875 -1.847656 1.640625 -1.5 1.828125 -1.25 C 2.015625 -1.007812 2.304688 -0.890625 2.703125 -0.890625 C 3.097656 -0.890625 3.390625 -1.007812 3.578125 -1.25 C 3.765625 -1.5 3.859375 -1.847656 3.859375 -2.296875 L 3.859375 -7.4375 C 3.859375 -7.882812 3.765625 -8.226562 3.578125 -8.46875 C 3.390625 -8.71875 3.097656 -8.84375 2.703125 -8.84375 C 2.304688 -8.84375 2.015625 -8.71875 1.828125 -8.46875 C 1.640625 -8.226562 1.546875 -7.882812 1.546875 -7.4375 Z M 1.546875 -2.296875 "/></g></g></g><g fill="#ffffff" fill-opacity="1"><g transform="translate(281.550858, 210.025738)"><g/></g></g><g fill="#ffffff" fill-opacity="1"><g transform="translate(285.793881, 210.025738)"><g><path d="M 2.59375 -9.828125 C 3.34375 -9.828125 3.890625 -9.609375 4.234375 -9.171875 C 4.585938 -8.734375 4.765625 -8.140625 4.765625 -7.390625 L 4.765625 -7.140625 L 3.734375 -7.140625 L 3.734375 -7.453125 C 3.734375 -7.898438 3.644531 -8.242188 3.46875 -8.484375 C 3.300781 -8.722656 3.019531 -8.84375 2.625 -8.84375 C 2.238281 -8.84375 1.957031 -8.722656 1.78125 -8.484375 C 1.601562 -8.242188 1.515625 -7.90625 1.515625 -7.46875 C 1.515625 -7.101562 1.59375 -6.785156 1.75 -6.515625 C 1.914062 -6.253906 2.117188 -6.007812 2.359375 -5.78125 C 2.597656 -5.550781 2.859375 -5.328125 3.140625 -5.109375 C 3.429688 -4.890625 3.695312 -4.648438 3.9375 -4.390625 C 4.175781 -4.128906 4.375 -3.832031 4.53125 -3.5 C 4.695312 -3.175781 4.78125 -2.789062 4.78125 -2.34375 C 4.78125 -1.59375 4.601562 -1 4.25 -0.5625 C 3.894531 -0.125 3.34375 0.09375 2.59375 0.09375 C 1.832031 0.09375 1.273438 -0.125 0.921875 -0.5625 C 0.578125 -1 0.40625 -1.59375 0.40625 -2.34375 L 0.40625 -2.890625 L 1.421875 -2.890625 L 1.421875 -2.28125 C 1.421875 -1.832031 1.507812 -1.488281 1.6875 -1.25 C 1.875 -1.007812 2.164062 -0.890625 2.5625 -0.890625 C 2.945312 -0.890625 3.234375 -1.007812 3.421875 -1.25 C 3.609375 -1.488281 3.703125 -1.832031 3.703125 -2.28125 C 3.703125 -2.644531 3.617188 -2.957031 3.453125 -3.21875 C 3.296875 -3.476562 3.09375 -3.722656 2.84375 -3.953125 C 2.601562 -4.179688 2.34375 -4.40625 2.0625 -4.625 C 1.789062 -4.84375 1.535156 -5.082031 1.296875 -5.34375 C 1.054688 -5.601562 0.851562 -5.894531 0.6875 -6.21875 C 0.519531 -6.550781 0.4375 -6.941406 0.4375 -7.390625 C 0.4375 -8.148438 0.613281 -8.742188 0.96875 -9.171875 C 1.320312 -9.609375 1.863281 -9.828125 2.59375 -9.828125 Z M 2.59375 -9.828125 "/></g></g></g><g fill="#ffffff" fill-opacity="1"><g transform="translate(293.055397, 210.025738)"><g><path d="M 4.015625 -5.421875 L 4.015625 -4.453125 L 1.640625 -4.453125 L 1.640625 -0.984375 L 4.5625 -0.984375 L 4.5625 0 L 0.5625 0 L 0.5625 -9.734375 L 4.5625 -9.734375 L 4.5625 -8.75 L 1.640625 -8.75 L 1.640625 -5.421875 Z M 4.015625 -5.421875 "/></g></g></g><g fill="#ffffff" fill-opacity="1"><g transform="translate(300.149989, 210.025738)"><g/></g></g><g fill="#ffffff" fill-opacity="1"><g transform="translate(304.393012, 210.025738)"><g><path d="M 2.65625 -9.828125 C 3.40625 -9.828125 3.957031 -9.601562 4.3125 -9.15625 C 4.675781 -8.71875 4.859375 -8.128906 4.859375 -7.390625 L 4.859375 -6.515625 L 3.828125 -6.515625 L 3.828125 -7.4375 C 3.828125 -7.882812 3.734375 -8.226562 3.546875 -8.46875 C 3.367188 -8.71875 3.082031 -8.84375 2.6875 -8.84375 C 2.289062 -8.84375 2 -8.71875 1.8125 -8.46875 C 1.632812 -8.226562 1.546875 -7.882812 1.546875 -7.4375 L 1.546875 -2.296875 C 1.546875 -1.847656 1.632812 -1.5 1.8125 -1.25 C 2 -1.007812 2.289062 -0.890625 2.6875 -0.890625 C 3.082031 -0.890625 3.367188 -1.007812 3.546875 -1.25 C 3.734375 -1.5 3.828125 -1.847656 3.828125 -2.296875 L 3.828125 -3.5625 L 4.859375 -3.5625 L 4.859375 -2.34375 C 4.859375 -1.601562 4.675781 -1.007812 4.3125 -0.5625 C 3.957031 -0.125 3.40625 0.09375 2.65625 0.09375 C 1.914062 0.09375 1.363281 -0.125 1 -0.5625 C 0.644531 -1.007812 0.46875 -1.601562 0.46875 -2.34375 L 0.46875 -7.390625 C 0.46875 -7.753906 0.507812 -8.085938 0.59375 -8.390625 C 0.6875 -8.691406 0.820312 -8.945312 1 -9.15625 C 1.1875 -9.375 1.414062 -9.539062 1.6875 -9.65625 C 1.957031 -9.769531 2.28125 -9.828125 2.65625 -9.828125 Z M 2.65625 -9.828125 "/></g></g></g><g fill="#ffffff" fill-opacity="1"><g transform="translate(311.76581, 210.025738)"><g><path d="M 2.71875 -9.734375 C 3.488281 -9.734375 4.039062 -9.539062 4.375 -9.15625 C 4.71875 -8.78125 4.890625 -8.234375 4.890625 -7.515625 L 4.890625 -6.71875 C 4.890625 -6.175781 4.789062 -5.738281 4.59375 -5.40625 C 4.40625 -5.070312 4.101562 -4.84375 3.6875 -4.71875 C 4.132812 -4.582031 4.445312 -4.335938 4.625 -3.984375 C 4.8125 -3.640625 4.90625 -3.207031 4.90625 -2.6875 L 4.90625 -1.171875 C 4.90625 -0.953125 4.914062 -0.742188 4.9375 -0.546875 C 4.957031 -0.347656 5.015625 -0.164062 5.109375 0 L 4 0 C 3.9375 -0.132812 3.890625 -0.28125 3.859375 -0.4375 C 3.835938 -0.601562 3.828125 -0.851562 3.828125 -1.1875 L 3.828125 -2.71875 C 3.828125 -3.257812 3.703125 -3.632812 3.453125 -3.84375 C 3.210938 -4.050781 2.863281 -4.15625 2.40625 -4.15625 L 1.640625 -4.15625 L 1.640625 0 L 0.5625 0 L 0.5625 -9.734375 Z M 2.453125 -5.140625 C 2.878906 -5.140625 3.210938 -5.226562 3.453125 -5.40625 C 3.703125 -5.59375 3.828125 -5.953125 3.828125 -6.484375 L 3.828125 -7.40625 C 3.828125 -7.851562 3.738281 -8.1875 3.5625 -8.40625 C 3.394531 -8.632812 3.109375 -8.75 2.703125 -8.75 L 1.640625 -8.75 L 1.640625 -5.140625 Z M 2.453125 -5.140625 "/></g></g></g><g fill="#ffffff" fill-opacity="1"><g transform="translate(319.333353, 210.025738)"><g><path d="M 4.015625 -5.421875 L 4.015625 -4.453125 L 1.640625 -4.453125 L 1.640625 -0.984375 L 4.5625 -0.984375 L 4.5625 0 L 0.5625 0 L 0.5625 -9.734375 L 4.5625 -9.734375 L 4.5625 -8.75 L 1.640625 -8.75 L 1.640625 -5.421875 Z M 4.015625 -5.421875 "/></g></g></g><g fill="#ffffff" fill-opacity="1"><g transform="translate(326.427946, 210.025738)"><g><path d="M 1.65625 -1.953125 L 1.28125 0 L 0.28125 0 L 2.140625 -9.734375 L 3.71875 -9.734375 L 5.578125 0 L 4.484375 0 L 4.109375 -1.953125 Z M 1.796875 -2.890625 L 3.96875 -2.890625 L 2.859375 -8.515625 Z M 1.796875 -2.890625 "/></g></g></g><g fill="#ffffff" fill-opacity="1"><g transform="translate(334.384965, 210.025738)"><g/></g></g><g fill="#ffffff" fill-opacity="1"><g transform="translate(338.627988, 210.025738)"><g><path d="M 1.515625 0 L 0.546875 0 L 0.546875 -9.734375 L 1.921875 -9.734375 L 4.171875 -2.703125 L 4.171875 -9.734375 L 5.125 -9.734375 L 5.125 0 L 4 0 L 1.515625 -7.875 Z M 1.515625 0 "/></g></g></g><g fill="#ffffff" fill-opacity="1"><g transform="translate(346.404179, 210.025738)"><g><path d="M 1.640625 -9.734375 L 1.640625 0 L 0.5625 0 L 0.5625 -9.734375 Z M 1.640625 -9.734375 "/></g></g></g><g fill="#ffffff" fill-opacity="1"><g transform="translate(161.819115, 225.025737)"><g><path d="M 2.59375 -9.828125 C 3.34375 -9.828125 3.890625 -9.609375 4.234375 -9.171875 C 4.585938 -8.734375 4.765625 -8.140625 4.765625 -7.390625 L 4.765625 -7.140625 L 3.734375 -7.140625 L 3.734375 -7.453125 C 3.734375 -7.898438 3.644531 -8.242188 3.46875 -8.484375 C 3.300781 -8.722656 3.019531 -8.84375 2.625 -8.84375 C 2.238281 -8.84375 1.957031 -8.722656 1.78125 -8.484375 C 1.601562 -8.242188 1.515625 -7.90625 1.515625 -7.46875 C 1.515625 -7.101562 1.59375 -6.785156 1.75 -6.515625 C 1.914062 -6.253906 2.117188 -6.007812 2.359375 -5.78125 C 2.597656 -5.550781 2.859375 -5.328125 3.140625 -5.109375 C 3.429688 -4.890625 3.695312 -4.648438 3.9375 -4.390625 C 4.175781 -4.128906 4.375 -3.832031 4.53125 -3.5 C 4.695312 -3.175781 4.78125 -2.789062 4.78125 -2.34375 C 4.78125 -1.59375 4.601562 -1 4.25 -0.5625 C 3.894531 -0.125 3.34375 0.09375 2.59375 0.09375 C 1.832031 0.09375 1.273438 -0.125 0.921875 -0.5625 C 0.578125 -1 0.40625 -1.59375 0.40625 -2.34375 L 0.40625 -2.890625 L 1.421875 -2.890625 L 1.421875 -2.28125 C 1.421875 -1.832031 1.507812 -1.488281 1.6875 -1.25 C 1.875 -1.007812 2.164062 -0.890625 2.5625 -0.890625 C 2.945312 -0.890625 3.234375 -1.007812 3.421875 -1.25 C 3.609375 -1.488281 3.703125 -1.832031 3.703125 -2.28125 C 3.703125 -2.644531 3.617188 -2.957031 3.453125 -3.21875 C 3.296875 -3.476562 3.09375 -3.722656 2.84375 -3.953125 C 2.601562 -4.179688 2.34375 -4.40625 2.0625 -4.625 C 1.789062 -4.84375 1.535156 -5.082031 1.296875 -5.34375 C 1.054688 -5.601562 0.851562 -5.894531 0.6875 -6.21875 C 0.519531 -6.550781 0.4375 -6.941406 0.4375 -7.390625 C 0.4375 -8.148438 0.613281 -8.742188 0.96875 -9.171875 C 1.320312 -9.609375 1.863281 -9.828125 2.59375 -9.828125 Z M 2.59375 -9.828125 "/></g></g></g><g fill="#ffffff" fill-opacity="1"><g transform="translate(169.080629, 225.025737)"><g><path d="M 4.015625 -5.421875 L 4.015625 -4.453125 L 1.640625 -4.453125 L 1.640625 -0.984375 L 4.5625 -0.984375 L 4.5625 0 L 0.5625 0 L 0.5625 -9.734375 L 4.5625 -9.734375 L 4.5625 -8.75 L 1.640625 -8.75 L 1.640625 -5.421875 Z M 4.015625 -5.421875 "/></g></g></g><g fill="#ffffff" fill-opacity="1"><g transform="translate(176.17522, 225.025737)"><g/></g></g><g fill="#ffffff" fill-opacity="1"><g transform="translate(180.418241, 225.025737)"><g><path d="M 2.84375 -9.734375 C 3.601562 -9.734375 4.160156 -9.515625 4.515625 -9.078125 C 4.867188 -8.648438 5.046875 -8.0625 5.046875 -7.3125 L 5.046875 -2.40625 C 5.046875 -1.65625 4.867188 -1.066406 4.515625 -0.640625 C 4.160156 -0.210938 3.601562 0 2.84375 0 L 0.5625 0 L 0.5625 -9.734375 Z M 2.828125 -0.984375 C 3.210938 -0.984375 3.5 -1.101562 3.6875 -1.34375 C 3.882812 -1.582031 3.984375 -1.921875 3.984375 -2.359375 L 3.984375 -7.375 C 3.984375 -7.8125 3.882812 -8.148438 3.6875 -8.390625 C 3.5 -8.628906 3.207031 -8.75 2.8125 -8.75 L 1.640625 -8.75 L 1.640625 -0.984375 Z M 2.828125 -0.984375 "/></g></g></g><g fill="#ffffff" fill-opacity="1"><g transform="translate(188.013601, 225.025737)"><g><path d="M 4.015625 -5.421875 L 4.015625 -4.453125 L 1.640625 -4.453125 L 1.640625 -0.984375 L 4.5625 -0.984375 L 4.5625 0 L 0.5625 0 L 0.5625 -9.734375 L 4.5625 -9.734375 L 4.5625 -8.75 L 1.640625 -8.75 L 1.640625 -5.421875 Z M 4.015625 -5.421875 "/></g></g></g><g fill="#ffffff" fill-opacity="1"><g transform="translate(195.108191, 225.025737)"><g><path d="M 2.59375 -9.828125 C 3.34375 -9.828125 3.890625 -9.609375 4.234375 -9.171875 C 4.585938 -8.734375 4.765625 -8.140625 4.765625 -7.390625 L 4.765625 -7.140625 L 3.734375 -7.140625 L 3.734375 -7.453125 C 3.734375 -7.898438 3.644531 -8.242188 3.46875 -8.484375 C 3.300781 -8.722656 3.019531 -8.84375 2.625 -8.84375 C 2.238281 -8.84375 1.957031 -8.722656 1.78125 -8.484375 C 1.601562 -8.242188 1.515625 -7.90625 1.515625 -7.46875 C 1.515625 -7.101562 1.59375 -6.785156 1.75 -6.515625 C 1.914062 -6.253906 2.117188 -6.007812 2.359375 -5.78125 C 2.597656 -5.550781 2.859375 -5.328125 3.140625 -5.109375 C 3.429688 -4.890625 3.695312 -4.648438 3.9375 -4.390625 C 4.175781 -4.128906 4.375 -3.832031 4.53125 -3.5 C 4.695312 -3.175781 4.78125 -2.789062 4.78125 -2.34375 C 4.78125 -1.59375 4.601562 -1 4.25 -0.5625 C 3.894531 -0.125 3.34375 0.09375 2.59375 0.09375 C 1.832031 0.09375 1.273438 -0.125 0.921875 -0.5625 C 0.578125 -1 0.40625 -1.59375 0.40625 -2.34375 L 0.40625 -2.890625 L 1.421875 -2.890625 L 1.421875 -2.28125 C 1.421875 -1.832031 1.507812 -1.488281 1.6875 -1.25 C 1.875 -1.007812 2.164062 -0.890625 2.5625 -0.890625 C 2.945312 -0.890625 3.234375 -1.007812 3.421875 -1.25 C 3.609375 -1.488281 3.703125 -1.832031 3.703125 -2.28125 C 3.703125 -2.644531 3.617188 -2.957031 3.453125 -3.21875 C 3.296875 -3.476562 3.09375 -3.722656 2.84375 -3.953125 C 2.601562 -4.179688 2.34375 -4.40625 2.0625 -4.625 C 1.789062 -4.84375 1.535156 -5.082031 1.296875 -5.34375 C 1.054688 -5.601562 0.851562 -5.894531 0.6875 -6.21875 C 0.519531 -6.550781 0.4375 -6.941406 0.4375 -7.390625 C 0.4375 -8.148438 0.613281 -8.742188 0.96875 -9.171875 C 1.320312 -9.609375 1.863281 -9.828125 2.59375 -9.828125 Z M 2.59375 -9.828125 "/></g></g></g><g fill="#ffffff" fill-opacity="1"><g transform="translate(202.369704, 225.025737)"><g><path d="M 1.953125 0 L 1.953125 -8.75 L 0.171875 -8.75 L 0.171875 -9.734375 L 4.828125 -9.734375 L 4.828125 -8.75 L 3.03125 -8.75 L 3.03125 0 Z M 1.953125 0 "/></g></g></g><g fill="#ffffff" fill-opacity="1"><g transform="translate(209.464294, 225.025737)"><g><path d="M 2.71875 -9.734375 C 3.488281 -9.734375 4.039062 -9.539062 4.375 -9.15625 C 4.71875 -8.78125 4.890625 -8.234375 4.890625 -7.515625 L 4.890625 -6.71875 C 4.890625 -6.175781 4.789062 -5.738281 4.59375 -5.40625 C 4.40625 -5.070312 4.101562 -4.84375 3.6875 -4.71875 C 4.132812 -4.582031 4.445312 -4.335938 4.625 -3.984375 C 4.8125 -3.640625 4.90625 -3.207031 4.90625 -2.6875 L 4.90625 -1.171875 C 4.90625 -0.953125 4.914062 -0.742188 4.9375 -0.546875 C 4.957031 -0.347656 5.015625 -0.164062 5.109375 0 L 4 0 C 3.9375 -0.132812 3.890625 -0.28125 3.859375 -0.4375 C 3.835938 -0.601562 3.828125 -0.851562 3.828125 -1.1875 L 3.828125 -2.71875 C 3.828125 -3.257812 3.703125 -3.632812 3.453125 -3.84375 C 3.210938 -4.050781 2.863281 -4.15625 2.40625 -4.15625 L 1.640625 -4.15625 L 1.640625 0 L 0.5625 0 L 0.5625 -9.734375 Z M 2.453125 -5.140625 C 2.878906 -5.140625 3.210938 -5.226562 3.453125 -5.40625 C 3.703125 -5.59375 3.828125 -5.953125 3.828125 -6.484375 L 3.828125 -7.40625 C 3.828125 -7.851562 3.738281 -8.1875 3.5625 -8.40625 C 3.394531 -8.632812 3.109375 -8.75 2.703125 -8.75 L 1.640625 -8.75 L 1.640625 -5.140625 Z M 2.453125 -5.140625 "/></g></g></g><g fill="#ffffff" fill-opacity="1"><g transform="translate(217.031837, 225.025737)"><g><path d="M 1.578125 -2.296875 C 1.578125 -1.847656 1.664062 -1.5 1.84375 -1.25 C 2.03125 -1.007812 2.320312 -0.890625 2.71875 -0.890625 C 3.113281 -0.890625 3.398438 -1.007812 3.578125 -1.25 C 3.765625 -1.5 3.859375 -1.847656 3.859375 -2.296875 L 3.859375 -9.734375 L 4.859375 -9.734375 L 4.859375 -2.34375 C 4.859375 -1.601562 4.679688 -1.007812 4.328125 -0.5625 C 3.984375 -0.113281 3.4375 0.109375 2.6875 0.109375 C 1.945312 0.109375 1.398438 -0.113281 1.046875 -0.5625 C 0.691406 -1.007812 0.515625 -1.601562 0.515625 -2.34375 L 0.515625 -9.734375 L 1.578125 -9.734375 Z M 1.578125 -2.296875 "/></g></g></g><g fill="#ffffff" fill-opacity="1"><g transform="translate(224.502001, 225.025737)"><g><path d="M 2.28125 -3.484375 L 0.21875 -9.734375 L 1.34375 -9.734375 L 2.859375 -4.953125 L 4.390625 -9.734375 L 5.421875 -9.734375 L 3.34375 -3.484375 L 3.34375 0 L 2.28125 0 Z M 2.28125 -3.484375 "/></g></g></g><g fill="#ffffff" fill-opacity="1"><g transform="translate(232.236467, 225.025737)"><g><path d="M 4.015625 -5.421875 L 4.015625 -4.453125 L 1.640625 -4.453125 L 1.640625 -0.984375 L 4.5625 -0.984375 L 4.5625 0 L 0.5625 0 L 0.5625 -9.734375 L 4.5625 -9.734375 L 4.5625 -8.75 L 1.640625 -8.75 L 1.640625 -5.421875 Z M 4.015625 -5.421875 "/></g></g></g></svg>